<svg xmlns="http://www.w3.org/2000/svg" viewBox="0 0 800 600" width="800" height="600">
  <defs>
    <linearGradient id="riverGradient" x1="0%" y1="0%" x2="100%" y2="100%">
      <stop offset="0%" style="stop-color:#4A90E2;stop-opacity:1" />
      <stop offset="100%" style="stop-color:#2171C7;stop-opacity:1" />
    </linearGradient>
    <linearGradient id="nodeGradient" x1="0%" y1="0%" x2="100%" y2="100%">
      <stop offset="0%" style="stop-color:#FF6B6B;stop-opacity:1" />
      <stop offset="100%" style="stop-color:#E74C3C;stop-opacity:1" />
    </linearGradient>
  </defs>
  
  <!-- Background -->
  <rect width="800" height="600" fill="#F0F4F8"/>
  
  <!-- Grid pattern -->
  <g opacity="0.1">
    <pattern id="grid" width="40" height="40" patternUnits="userSpaceOnUse">
      <path d="M 40 0 L 0 0 0 40" fill="none" stroke="#CBD5E1" stroke-width="1"/>
    </pattern>
    <rect width="800" height="600" fill="url(#grid)" />
  </g>
  
  <!-- River network paths -->
  <g stroke="url(#riverGradient)" fill="none" stroke-width="4" stroke-linecap="round">
    <!-- Main river -->
    <path d="M 100 300 Q 200 250 300 280 T 500 300 Q 600 320 700 350" opacity="0.8"/>
    
    <!-- Tributaries -->
    <path d="M 150 150 Q 200 200 250 270" stroke-width="3" opacity="0.7"/>
    <path d="M 350 180 Q 380 220 400 290" stroke-width="3" opacity="0.7"/>
    <path d="M 250 450 Q 300 380 350 300" stroke-width="3" opacity="0.7"/>
    <path d="M 450 420 Q 480 360 520 310" stroke-width="3" opacity="0.7"/>
    <path d="M 550 200 Q 580 250 600 320" stroke-width="3" opacity="0.7"/>
    
    <!-- Secondary tributaries -->
    <path d="M 120 80 Q 140 110 150 150" stroke-width="2" opacity="0.6"/>
    <path d="M 180 100 Q 170 120 150 150" stroke-width="2" opacity="0.6"/>
    <path d="M 320 120 Q 340 150 350 180" stroke-width="2" opacity="0.6"/>
    <path d="M 380 140 Q 370 160 350 180" stroke-width="2" opacity="0.6"/>
    <path d="M 200 500 Q 220 480 250 450" stroke-width="2" opacity="0.6"/>
    <path d="M 280 480 Q 270 470 250 450" stroke-width="2" opacity="0.6"/>
    <path d="M 420 480 Q 440 450 450 420" stroke-width="2" opacity="0.6"/>
    <path d="M 480 450 Q 470 440 450 420" stroke-width="2" opacity="0.6"/>
    <path d="M 520 150 Q 540 170 550 200" stroke-width="2" opacity="0.6"/>
    <path d="M 580 160 Q 570 180 550 200" stroke-width="2" opacity="0.6"/>
  </g>
  
  <!-- Junction nodes -->
  <g fill="url(#nodeGradient)">
    <circle cx="150" cy="150" r="8" opacity="0.9"/>
    <circle cx="250" cy="270" r="8" opacity="0.9"/>
    <circle cx="350" cy="180" r="8" opacity="0.9"/>
    <circle cx="400" cy="290" r="8" opacity="0.9"/>
    <circle cx="350" cy="300" r="8" opacity="0.9"/>
    <circle cx="250" cy="450" r="8" opacity="0.9"/>
    <circle cx="450" cy="420" r="8" opacity="0.9"/>
    <circle cx="520" cy="310" r="8" opacity="0.9"/>
    <circle cx="550" cy="200" r="8" opacity="0.9"/>
    <circle cx="600" cy="320" r="8" opacity="0.9"/>
  </g>
  
  <!-- Flow direction arrows -->
  <g fill="#4A90E2" opacity="0.6">
    <path d="M 380 280 L 390 285 L 385 295 Z" transform="rotate(45 385 285)"/>
    <path d="M 480 300 L 490 305 L 485 315 Z" transform="rotate(35 485 305)"/>
    <path d="M 280 380 L 290 385 L 285 395 Z" transform="rotate(-45 285 385)"/>
  </g>
  
  <!-- Data visualization elements -->
  <g opacity="0.3">
    <rect x="680" y="50" width="100" height="80" rx="8" fill="#E3F2FD" stroke="#2196F3" stroke-width="2"/>
    <text x="730" y="75" text-anchor="middle" font-family="Arial" font-size="14" fill="#1976D2">Flow Data</text>
    <rect x="690" y="85" width="80" height="6" rx="3" fill="#2196F3"/>
    <rect x="690" y="95" width="60" height="6" rx="3" fill="#64B5F6"/>
    <rect x="690" y="105" width="70" height="6" rx="3" fill="#90CAF9"/>
  </g>
  
  <!-- Legend -->
  <g transform="translate(50, 520)">
    <text x="0" y="0" font-family="Arial" font-size="12" fill="#64748B">River Network Visualization</text>
    <line x1="0" y1="10" x2="30" y2="10" stroke="url(#riverGradient)" stroke-width="3"/>
    <text x="35" y="14" font-family="Arial" font-size="11" fill="#64748B">River Reach</text>
    <circle cx="100" cy="10" r="5" fill="url(#nodeGradient)"/>
    <text x="110" y="14" font-family="Arial" font-size="11" fill="#64748B">Junction Node</text>
  </g>
</svg>