<svg xmlns="http://www.w3.org/2000/svg" viewBox="0 0 1440 320" preserveAspectRatio="none">
  <defs>
    <linearGradient id="waveGradient" x1="0%" y1="0%" x2="0%" y2="100%">
      <stop offset="0%" style="stop-color:#E0F2FE;stop-opacity:0.8" />
      <stop offset="100%" style="stop-color:#BAE6FD;stop-opacity:0.4" />
    </linearGradient>
  </defs>
  <path fill="url(#waveGradient)" fill-opacity="1" d="M0,160L48,149.3C96,139,192,117,288,122.7C384,128,480,160,576,165.3C672,171,768,149,864,128C960,107,1056,85,1152,90.7C1248,96,1344,128,1392,144L1440,160L1440,320L1392,320C1344,320,1248,320,1152,320C1056,320,960,320,864,320C768,320,672,320,576,320C480,320,384,320,288,320C192,320,96,320,48,320L0,320Z"></path>
  <path fill="url(#waveGradient)" fill-opacity="0.6" d="M0,224L48,213.3C96,203,192,181,288,170.7C384,160,480,160,576,170.7C672,181,768,203,864,213.3C960,224,1056,224,1152,213.3C1248,203,1344,181,1392,170.7L1440,160L1440,320L1392,320C1344,320,1248,320,1152,320C1056,320,960,320,864,320C768,320,672,320,576,320C480,320,384,320,288,320C192,320,96,320,48,320L0,320Z"></path>
</svg>